<?xml version="1.0" encoding="UTF-8"?>
<svg id="Layer_2" data-name="Layer 2" xmlns="http://www.w3.org/2000/svg" xmlns:xlink="http://www.w3.org/1999/xlink" viewBox="0 0 351.63 81.96">
  <defs>
    <style>
      .cls-1 {
        fill: #fff;
      }

      .cls-2 {
        fill: #2b7fff;
      }

      .cls-3 {
        opacity: .7;
      }

      .cls-4 {
        fill: url(#linear-gradient);
      }
    </style>
    <linearGradient id="linear-gradient" x1="20.24" y1="31.73" x2="70.05" y2="60.35" gradientUnits="userSpaceOnUse">
      <stop offset="0" stop-color="#2b7fff" stop-opacity=".7"/>
      <stop offset=".21" stop-color="#2b7fff" stop-opacity=".72"/>
      <stop offset=".45" stop-color="#2b7fff" stop-opacity=".78"/>
      <stop offset=".72" stop-color="#2b7fff" stop-opacity=".87"/>
      <stop offset="1" stop-color="#2b7fff"/>
    </linearGradient>
  </defs>
  <g id="Layer_1-2" data-name="Layer 1">
    <path class="cls-1" d="M13.8,23.44l1.32,2.91c-1.72,2.14-4.69.88-3.84-1.89l2.52-1.02Z"/>
    <path class="cls-4" d="M39.06,0h0C21.6,0,6.6,10.49,0,25.51c4.43-.5,9.18-.11,13.39-.83,6.87-1.16,12.87-4.78,18.96-7.93.18-.91-1.37.11-1.19-.79l3.56-.6c.69-.53-1.93-.48-1.78-.8,6.63-1.16,13.88-.81,20.34,1.14,1.65.5,6.42,2.25,7.25,3.67.98,1.67.52,5.5-.34,7.22-.73,1.47-1.43,1.41-2.32,2.25-.33.31-2,3.23-2.76,2.5-.38-.36,1.23-1.75.5-2.19-.55.41-2.28.78-2.44,1.52-.16.76,2.2,1.39,1.44,3.06-.35.78-3.48,1.72-4.43,2.32-1.77,1.11-2.42,2.05.11,2.66,1.08.26,2.29.29,3.32-.2,1.02-.48.71-1.23,1.31-2.08.34-.48,1.37-1.04,1.49-1.29.23-.49-.05-1.24.19-1.61.69-1.03,1.16,1.06.89,1.6,1.51-.27,1,.29,1.49.79.23.24.7.24.91.48.35.41,0,.78.09,1.13.06.24.51.48.44.86-.04.22-.4.47-.48.73-.15.5.28.67-.16,1.21-.63.79-2.43.77-2.49,1.09.1.77,1.2,1.6.97,2.36-.21.69-1.14.28-.97-.47l-.6.09c-.35.26-.17,2.36-.69,2.51-1.55.43-.2-3.06-.14-3.75.03-.34.06-.42-.25-.64-4.24,2.83-7.78,7.59-12.86,8.99-4.19,1.15-9.48.13-12.48-3.2-.88-.98-1.36-2.26-2.27-3.2,1,5.25,5.98,8.56,11.08,8.79.2.27-1.02,1.09-1.29,1.39-3.57,4.11-.91,10.14-4.06,14.78-.34.36-.44-.19-.44-.25-.13-.8-.25-1.8-.53-2.86-1.89-7.01-11.69-14.14-18.61-15.67,0,.15.03.32.4.49,7.08,3.29,18.8,11.09,16.74,20.49-1.14,5.19-5.88,7.48-9.84,10.22.34.15.67.31,1.01.46,13.13-7.42,30.38-11.88,45.31-7.73,8.58-7.8,13.97-19.06,13.97-31.57h0C81.72,19.1,62.62,0,39.06,0Z"/>
    <g>
      <g class="cls-3">
        <path class="cls-2" d="M108.96,39.96c.84-.51,1.56-1.19,2.14-2.05.96-1.41,1.44-3.18,1.44-5.31,0-1.67-.39-3.33-1.16-4.96-.77-1.64-2-3-3.67-4.08-1.67-1.08-3.86-1.62-6.57-1.62h-15.2v38.01h16.84c2.59,0,4.73-.49,6.44-1.46,1.71-.98,2.98-2.33,3.81-4.05.84-1.72,1.25-3.72,1.25-5.99,0-2.11-.59-4.02-1.78-5.73-.86-1.24-2.05-2.16-3.54-2.76ZM93.22,28.65h7.81c1.37,0,2.42.4,3.14,1.19.72.79,1.08,1.77,1.08,2.93,0,.93-.18,1.69-.55,2.28-.37.59-.87,1.03-1.5,1.31-.63.28-1.36.42-2.16.42h-7.81v-8.13ZM106.4,50.84c-.43.75-1.03,1.33-1.78,1.74-.76.41-1.62.62-2.59.62h-8.82v-9.71h8.82c1.11,0,2.04.21,2.78.62.75.41,1.31.97,1.68,1.68.37.7.55,1.5.55,2.4,0,1.02-.22,1.9-.65,2.65Z"/>
        <rect class="cls-2" x="117.45" y="21.16" width="7.18" height="38.8"/>
        <path class="cls-2" d="M148.86,45.92c0,1.76-.2,3.18-.59,4.26-.4,1.08-.9,1.9-1.52,2.45-.62.55-1.28.93-1.98,1.12-.7.19-1.36.29-1.98.29-1.53,0-2.71-.34-3.55-1.03-.84-.69-1.44-1.54-1.81-2.56s-.59-2.04-.66-3.05c-.07-1.01-.11-1.84-.11-2.49v-13.46h-7.28v16c0,.48.03,1.23.11,2.27.07,1.04.27,2.19.61,3.44.33,1.26.89,2.47,1.68,3.63.78,1.16,1.88,2.12,3.29,2.88,1.41.76,3.23,1.14,5.46,1.14,2.8,0,5.12-.61,6.96-1.82.86-.57,1.62-1.23,2.28-1.97v2.94h6.34v-28.51h-7.23v14.46Z"/>
        <path class="cls-2" d="M181.3,32.77c-2.09-1.41-4.64-2.11-7.63-2.11-2.82,0-5.31.64-7.47,1.91-2.16,1.28-3.86,3.07-5.09,5.37-1.23,2.31-1.85,5.02-1.85,8.13,0,2.85.63,5.38,1.89,7.59,1.26,2.21,3,3.94,5.23,5.2,2.23,1.26,4.8,1.89,7.72,1.89,2.75,0,5.28-.72,7.59-2.16,2.31-1.44,4.01-3.47,5.08-6.07l-7.18-2.06c-.53,1.16-1.29,2.05-2.3,2.67-1,.62-2.21.92-3.62.92-2.24,0-3.93-.73-5.08-2.18-.84-1.06-1.37-2.45-1.6-4.16h20.01c.3-3.45-.05-6.45-1.06-9-1-2.55-2.55-4.53-4.65-5.94ZM173.99,36.89c2.09,0,3.6.64,4.53,1.91.61.84,1.01,2.04,1.22,3.58h-12.55c.28-1.32.75-2.41,1.41-3.26,1.15-1.49,2.95-2.23,5.4-2.23Z"/>
      </g>
      <g>
        <path class="cls-2" d="M213.33,39.96c.84-.51,1.56-1.19,2.14-2.05.96-1.41,1.44-3.18,1.44-5.31,0-1.67-.39-3.33-1.16-4.96s-2-3-3.67-4.08c-1.67-1.08-3.86-1.62-6.57-1.62h-15.2v38.01h16.84c2.59,0,4.73-.49,6.44-1.46,1.71-.98,2.98-2.33,3.81-4.05.84-1.72,1.25-3.72,1.25-5.99,0-2.11-.59-4.02-1.78-5.73-.86-1.24-2.05-2.16-3.54-2.76ZM197.59,28.65h7.81c1.37,0,2.42.4,3.14,1.19.72.79,1.08,1.77,1.08,2.93,0,.93-.19,1.69-.55,2.28-.37.59-.87,1.03-1.51,1.31-.63.28-1.36.42-2.16.42h-7.81v-8.13ZM210.77,50.84c-.43.75-1.03,1.33-1.78,1.74-.76.41-1.62.62-2.59.62h-8.82v-9.71h8.82c1.11,0,2.04.21,2.79.62s1.31.97,1.68,1.68c.37.7.55,1.5.55,2.4,0,1.02-.22,1.9-.65,2.65Z"/>
        <path class="cls-2" d="M241.75,32.77c-2.09-1.41-4.64-2.11-7.63-2.11-2.82,0-5.31.64-7.47,1.91-2.16,1.28-3.86,3.07-5.09,5.37-1.23,2.31-1.85,5.02-1.85,8.13,0,2.85.63,5.38,1.89,7.59,1.26,2.21,3,3.94,5.23,5.2,2.23,1.26,4.8,1.89,7.72,1.89,2.74,0,5.27-.72,7.59-2.16,2.31-1.44,4.01-3.47,5.08-6.07l-7.18-2.06c-.53,1.16-1.29,2.05-2.3,2.67-1,.62-2.21.92-3.62.92-2.23,0-3.93-.73-5.08-2.18-.84-1.06-1.37-2.45-1.6-4.16h20.01c.3-3.45-.05-6.45-1.06-9s-2.55-4.53-4.65-5.94ZM234.44,36.89c2.09,0,3.6.64,4.53,1.91.61.84,1.01,2.04,1.22,3.58h-12.55c.28-1.32.75-2.41,1.41-3.26,1.15-1.49,2.95-2.23,5.4-2.23Z"/>
        <path class="cls-2" d="M271.2,32.77c-2.09-1.41-4.64-2.11-7.63-2.11-2.82,0-5.31.64-7.47,1.91-2.16,1.28-3.86,3.07-5.09,5.37-1.23,2.31-1.85,5.02-1.85,8.13,0,2.85.63,5.38,1.89,7.59,1.26,2.21,3,3.94,5.23,5.2,2.23,1.26,4.8,1.89,7.72,1.89,2.75,0,5.28-.72,7.59-2.16,2.31-1.44,4.01-3.47,5.08-6.07l-7.18-2.06c-.53,1.16-1.29,2.05-2.3,2.67-1,.62-2.21.92-3.62.92-2.24,0-3.93-.73-5.08-2.18-.84-1.06-1.37-2.45-1.6-4.16h20.01c.3-3.45-.05-6.45-1.06-9-1-2.55-2.55-4.53-4.65-5.94ZM263.89,36.89c2.09,0,3.6.64,4.53,1.91.61.84,1.01,2.04,1.22,3.58h-12.55c.28-1.32.75-2.41,1.41-3.26,1.15-1.49,2.95-2.23,5.4-2.23Z"/>
        <polygon class="cls-2" points="297.2 31.45 290.45 51.19 283.69 31.45 276.51 31.45 286.86 59.96 294.04 59.96 304.38 31.45 297.2 31.45"/>
        <path class="cls-2" d="M325.9,32.77c-2.09-1.41-4.64-2.11-7.63-2.11-2.82,0-5.31.64-7.47,1.91-2.16,1.28-3.86,3.07-5.09,5.37-1.23,2.31-1.85,5.02-1.85,8.13,0,2.85.63,5.38,1.89,7.59,1.26,2.21,3,3.94,5.23,5.2,2.23,1.26,4.8,1.89,7.72,1.89,2.75,0,5.28-.72,7.59-2.16,2.31-1.44,4.01-3.47,5.08-6.07l-7.18-2.06c-.53,1.16-1.29,2.05-2.3,2.67-1,.62-2.21.92-3.62.92-2.24,0-3.93-.73-5.08-2.18-.84-1.06-1.37-2.45-1.6-4.16h20.01c.3-3.45-.05-6.45-1.06-9-1-2.55-2.55-4.53-4.65-5.94ZM318.59,36.89c2.09,0,3.6.64,4.53,1.91.61.84,1.01,2.04,1.22,3.58h-12.55c.28-1.32.75-2.41,1.41-3.26,1.15-1.49,2.95-2.23,5.4-2.23Z"/>
        <path class="cls-2" d="M349.04,31.38c-.86.06-1.7.21-2.51.45-.81.24-1.56.57-2.24.99-.9.53-1.65,1.2-2.27,2.01-.29.38-.55.79-.79,1.21v-4.59h-6.34v28.51h7.23v-14.57c0-1.09.15-2.07.45-2.94s.74-1.63,1.32-2.27,1.29-1.16,2.14-1.54c.85-.4,1.79-.65,2.84-.73,1.05-.08,1.97,0,2.76.25v-6.7c-.86-.11-1.72-.13-2.59-.07Z"/>
      </g>
    </g>
  </g>
</svg>